# xmcd
#
# Track frame offsets:
#	150
#	12908
#	26219
#	35799
#	45713
#	59001
#	68910
#	79600
#	86578
#	97061
#	109393
#	124489
#	137666
#	149850
#	160067
#	172329
#
# Disc length: 2467 seconds
#
# Revision: 0
# Processed by: cddbd v1.5.2PL0 Copyright (c) Steve Scherf et al.
# Submitted via: EasyCDDAExtractor 12.0.0.1
#
DISCID=f809a110
DTITLE=Eddie Pennington - Thumb ''N'' Around Kentucky, Vol.02
DYEAR=1900
DGENRE=Country
TTITLE0=Lonesome Road Blues
TTITLE1=Darling Nellie Gray
TTITLE2=Wabash Cannonball
TTITLE3=Oh! Susanna
TTITLE4=House Of David Blues
TTITLE5=Snow Deer
TTITLE6=Wayfarin' Stranger
TTITLE7=Arizona Ragtime Cowboy Joe
TTITLE8=Are You From Dixie
TTITLE9=My Old Kentucky Home
TTITLE10=Old Joe Clark
TTITLE11=Home On The Range
TTITLE12=Bonaparte's Retreat
TTITLE13=The Wreck Of The Old '97
TTITLE14=Home Sweet Home
TTITLE15=Lonesome Road Blues (Added again by mistake)
EXTD=
EXTT0=
EXTT1=
EXTT2=
EXTT3=
EXTT4=
EXTT5=
EXTT6=
EXTT7=
EXTT8=
EXTT9=
EXTT10=
EXTT11=
EXTT12=
EXTT13=
EXTT14=
EXTT15=
PLAYORDER=
